<?xml version="1.0" encoding="UTF-8" standalone="no"?>
<svg
   xmlns:dc="http://purl.org/dc/elements/1.1/"
   xmlns:cc="http://creativecommons.org/ns#"
   xmlns:rdf="http://www.w3.org/1999/02/22-rdf-syntax-ns#"
   xmlns:svg="http://www.w3.org/2000/svg"
   xmlns="http://www.w3.org/2000/svg"
   xmlns:sodipodi="http://sodipodi.sourceforge.net/DTD/sodipodi-0.dtd"
   xmlns:inkscape="http://www.inkscape.org/namespaces/inkscape"
   inkscape:export-ydpi="109"
   inkscape:export-xdpi="109"
   inkscape:export-filename="C:\dev\source\repos\calcsubnet\DKrOSS.CalcSubnet.BlazorApp\wwwroot\img\calculator.png"
   height="512"
   width="512"
   viewBox="0 0 512 512"
   version="1.1"
   id="svg22"
   sodipodi:docname="calculator.svg"
   inkscape:version="1.0 (4035a4fb49, 2020-05-01)">
  <metadata
     id="metadata28">
    <rdf:RDF>
      <cc:Work
         rdf:about="">
        <dc:format>image/svg+xml</dc:format>
        <dc:type
           rdf:resource="http://purl.org/dc/dcmitype/StillImage" />
        <dc:title></dc:title>
      </cc:Work>
    </rdf:RDF>
  </metadata>
  <defs
     id="defs26">
    <rect
       id="rect854"
       height="111.4353"
       width="320.45177"
       y="87.943532"
       x="95.774121" />
    <rect
       id="rect25"
       height="111.4353"
       width="319.24707"
       y="87.341179"
       x="95.774121" />
    <rect
       id="rect19"
       height="86.136473"
       width="297.56236"
       y="101.1953"
       x="109.02589" />
  </defs>
  <sodipodi:namedview
     inkscape:document-rotation="0"
     pagecolor="#ffffff"
     bordercolor="#666666"
     borderopacity="1"
     objecttolerance="10"
     gridtolerance="10"
     guidetolerance="10"
     inkscape:pageopacity="0"
     inkscape:pageshadow="2"
     inkscape:window-width="1920"
     inkscape:window-height="1017"
     id="namedview24"
     showgrid="false"
     inkscape:zoom="1.6601562"
     inkscape:cx="108.04706"
     inkscape:cy="183.71764"
     inkscape:window-x="-8"
     inkscape:window-y="-8"
     inkscape:window-maximized="1"
     inkscape:current-layer="svg22" />
  <path
     style="fill:#5c2d91;fill-opacity:1;stroke:none;stroke-width:0.565188"
     d="M 71.258717,479.19916 C 60.373871,477.25634 50.009378,471.74192 42.980732,464.15388 39.634698,460.54155 34.807289,453.14965 33.784016,450.07155 32.305364,445.6236 32,412.409 32,256.02557 32,99.642132 32.305364,66.427546 33.784016,61.979594 c 1.062687,-3.196671 5.986743,-10.661052 9.457606,-14.336791 6.27506,-6.645455 14.900331,-11.537017 25.12068,-14.24644 L 73.629569,32 255.82482,32.222513 c 140.59345,0.171708 183.16179,0.370972 186.42827,0.872674 2.32816,0.357591 4.70923,0.676472 5.29126,0.708613 0.58206,0.03218 1.05827,0.233194 1.05827,0.44676 0,0.213568 2.16212,1.370905 4.8047,2.571863 5.65091,2.568126 11.9149,7.014033 15.7666,11.190458 3.15681,3.422946 8.04908,10.979733 9.04206,13.966713 C 479.69463,66.427546 480,99.642132 480,256.02557 c 0,160.16991 -0.28818,189.8474 -1.88514,194.12879 -1.38674,3.71774 -5.86,10.55111 -9.27334,14.1659 -6.12245,6.48385 -14.73915,11.46446 -24.75751,14.31029 L 439.26305,480 257.22621,479.95035 C 108.43325,479.90968 74.471553,479.77258 71.258717,479.19913 Z M 280.32879,423.66578 c 2.45473,-0.76344 7.38456,-4.87152 7.44582,-6.20471 0.0148,-0.32227 0.0463,-9.92219 0.0699,-21.33319 l 0.043,-20.74726 -1.52986,-2.0194 c -0.84142,-1.11067 -2.82441,-2.76844 -4.40663,-3.68391 l -2.87674,-1.66453 H 256.0001 232.92581 l -2.87676,1.66453 c -1.58223,0.91547 -3.56802,2.57695 -4.41289,3.69216 l -1.5361,2.02766 0.0387,21.17435 0.0387,21.17437 1.56682,1.79442 c 0.86176,0.98693 2.55755,2.45498 3.76846,3.26232 2.16761,1.44525 2.36583,1.47231 12.83278,1.75139 17.15126,0.45734 34.99906,0.04 37.98354,-0.8882 z m -129.01594,0.36419 c 1.77588,-0.5898 6.21141,-3.97765 7.09417,-5.41853 1.21563,-1.98415 1.44286,-5.75151 1.44286,-23.92246 0,-20.69638 0.12559,-20.02966 -4.45343,-23.64335 -1.32838,-1.04832 -3.45495,-2.15824 -4.72572,-2.4665 -3.11416,-0.75539 -43.23236,-0.75539 -46.34653,0 -1.27076,0.30826 -3.39733,1.41818 -4.725706,2.4665 -4.580342,3.61474 -4.454457,2.94514 -4.444795,23.64335 0.0084,20.15185 0.0827,21.54953 1.232436,23.50675 1.171454,1.9942 5.287725,5.26813 7.276825,5.78773 2.43548,0.63622 45.74702,0.67848 47.64989,0.0465 z m 257.63722,-0.30506 c 2.63735,-1.09323 6.55611,-4.6774 6.74432,-6.16851 0.084,-0.66522 0.19618,-1.20951 0.24934,-1.20951 0.67887,0 0.8552,-12.95954 1.04689,-76.94243 l 0.22422,-74.82947 -1.93229,-2.74322 c -1.06277,-1.50876 -3.0214,-3.43239 -4.35254,-4.27471 l -2.42023,-1.53149 h -23.91429 -23.9143 l -2.2924,1.38773 c -1.26082,0.76325 -3.25638,2.65636 -4.4346,4.20693 l -2.14219,2.81921 0.24558,75.16137 c 0.13501,41.33874 0.29306,75.61259 0.35107,76.16409 0.27475,2.61147 5.07325,7.38628 8.25937,8.21856 0.96928,0.2532 11.78975,0.4808 24.04548,0.50578 18.84292,0.0384 22.58475,-0.0797 24.23657,-0.76433 z M 152.59327,311.40604 c 2.035,-0.98406 4.41973,-3.10278 6.12008,-5.43742 1.05076,-1.44275 1.1513,-3.06191 1.33209,-21.4549 l 0.19557,-19.89438 -1.94792,-2.7654 c -1.07135,-1.52097 -3.03701,-3.45456 -4.36813,-4.29688 l -2.42024,-1.53149 h -23.91429 -23.9143 l -2.29241,1.38773 c -1.26082,0.76325 -3.260458,2.66173 -4.443643,4.21885 l -2.151249,2.83112 0.178118,20.26162 0.178117,20.26161 2.33045,2.4836 c 2.682327,2.8586 4.459957,3.98779 7.208997,4.57932 1.0726,0.23079 11.88269,0.37783 24.02241,0.32675 19.30695,-0.0812 22.29947,-0.20278 23.88635,-0.97013 z m 127.59544,0.15304 c 2.75531,-1.09939 7.54567,-5.38819 7.58564,-6.79141 0.0146,-0.51493 0.0371,-10.00248 0.0499,-21.08343 0.0257,-22.35698 0.11884,-21.782 -4.04351,-24.97443 -1.21802,-0.93419 -2.88239,-1.92031 -3.69856,-2.19138 -0.82217,-0.27307 -11.56186,-0.49286 -24.08217,-0.49286 -12.5203,0 -23.25999,0.21979 -24.08216,0.49286 -0.81617,0.27107 -2.48054,1.25719 -3.69856,2.19138 -4.17307,3.20061 -4.07144,2.56119 -4.06774,25.59359 0.001,12.85575 0.23388,21.12803 0.6089,21.72826 1.1694,1.87164 5.40029,5.01412 7.7254,5.73804 1.8301,0.56978 7.0914,0.73392 23.81652,0.74294 19.52169,0.0106 21.68674,-0.0759 23.88635,-0.95356 z m -56.69375,-33.2153 c -0.10267,-3.99483 -0.18678,-0.72633 -0.18678,7.26332 0,7.98966 0.0841,11.25816 0.18678,7.26333 0.10266,-3.99484 0.10266,-10.53182 0,-14.52665 z m 65.30952,0 c -0.10267,-3.99483 -0.18679,-0.72633 -0.18679,7.26332 0,7.98966 0.084,11.25816 0.18679,7.26333 0.1028,-3.99484 0.1028,-10.53182 0,-14.52665 z m 118.31606,-78.69026 c 1.798,-0.21653 3.14902,-0.9518 5.67354,-3.08774 2.21177,-1.87135 3.19276,-3.07853 2.9503,-3.63049 -0.19981,-0.45483 -0.14168,-0.82695 0.1291,-0.82695 0.87288,0 0.9814,-5.34511 0.9814,-48.3341 0,-42.98899 -0.10857,-48.33411 -0.9814,-48.33411 -0.27084,0 -0.32896,-0.372125 -0.1291,-0.826937 0.24246,-0.551969 -0.73853,-1.759153 -2.9503,-3.63049 -2.52313,-2.134766 -3.87654,-2.871592 -5.67354,-3.088783 -3.08439,-0.372799 -299.15668,-0.372799 -302.24109,0 -1.797,0.217191 -3.15041,0.954017 -5.673518,3.088783 -2.211765,1.871337 -3.192768,3.078521 -2.950295,3.63049 0.19979,0.454812 0.141665,0.826937 -0.129105,0.826937 -0.27084,0 -0.602464,1.366824 -0.736928,3.037391 -0.30749,3.820309 -0.305535,88.916809 0.0014,91.781979 0.298377,2.77876 1.249284,4.31353 4.239703,6.84293 1.914203,1.61911 3.115153,2.16765 5.341123,2.43961 3.40587,0.41614 298.71342,0.52508 302.14804,0.11149 z"
     id="path855" />
  <text
     style="font-size:53.3333px;line-height:2.25;font-family:Roboto;-inkscape-font-specification:Roboto;text-align:center;white-space:pre;shape-inside:url(#rect854);font-weight:normal;font-style:normal;font-stretch:normal;font-variant:normal"
     id="text852"
     xml:space="preserve"><tspan
       x="119.12508"
       y="161.27665"><tspan
         style="font-style:normal;font-variant:normal;font-weight:normal;font-stretch:normal;font-size:53.3333px;font-family:Roboto;-inkscape-font-specification:Roboto;text-align:center;text-anchor:middle">calcsub.net</tspan></tspan></text>
</svg>
